<mxfile host="www.draw.io" modified="2019-11-17T07:32:52.977Z" agent="Mozilla/5.0 (Macintosh; Intel Mac OS X 10_14_6) AppleWebKit/537.36 (KHTML, like Gecko) Chrome/78.0.3904.97 Safari/537.36" etag="MkiDjYXHV-SdarhJrTyP" version="12.2.6" type="github" pages="1">
  <diagram id="U_mqf_qG5AjTan2YALFQ" name="Page-1">
    <mxGraphModel dx="932" dy="540" grid="1" gridSize="10" guides="1" tooltips="1" connect="1" arrows="1" fold="1" page="1" pageScale="1" pageWidth="827" pageHeight="1169" math="0" shadow="0">
      <root>
        <mxCell id="0"/>
        <mxCell id="1" parent="0"/>
        <mxCell id="_hkE4ayy22RxHB7I-x_o-11" style="edgeStyle=orthogonalEdgeStyle;rounded=0;orthogonalLoop=1;jettySize=auto;html=1;exitX=1;exitY=0.5;exitDx=0;exitDy=0;entryX=0.5;entryY=1;entryDx=0;entryDy=0;" edge="1" parent="1" source="_hkE4ayy22RxHB7I-x_o-1" target="_hkE4ayy22RxHB7I-x_o-2">
          <mxGeometry relative="1" as="geometry"/>
        </mxCell>
        <mxCell id="_hkE4ayy22RxHB7I-x_o-1" value="PID、seqID" style="rounded=0;whiteSpace=wrap;html=1;" vertex="1" parent="1">
          <mxGeometry x="50" y="150" width="250" height="200" as="geometry"/>
        </mxCell>
        <mxCell id="_hkE4ayy22RxHB7I-x_o-2" value="ZK分配PID段给broker" style="rounded=0;whiteSpace=wrap;html=1;" vertex="1" parent="1">
          <mxGeometry x="330" y="73" width="190" height="60" as="geometry"/>
        </mxCell>
        <mxCell id="_hkE4ayy22RxHB7I-x_o-3" value="去重和保证顺序性" style="text;html=1;resizable=0;points=[];autosize=1;align=left;verticalAlign=top;spacingTop=-4;" vertex="1" parent="1">
          <mxGeometry x="170" y="40" width="110" height="20" as="geometry"/>
        </mxCell>
        <mxCell id="_hkE4ayy22RxHB7I-x_o-8" value="ProducerBatch" style="rounded=0;whiteSpace=wrap;html=1;" vertex="1" parent="1">
          <mxGeometry x="60" y="300" width="100" height="40" as="geometry"/>
        </mxCell>
        <mxCell id="_hkE4ayy22RxHB7I-x_o-10" value="client&lt;br&gt;" style="text;html=1;resizable=0;points=[];autosize=1;align=left;verticalAlign=top;spacingTop=-4;" vertex="1" parent="1">
          <mxGeometry x="216" y="133" width="40" height="20" as="geometry"/>
        </mxCell>
        <mxCell id="_hkE4ayy22RxHB7I-x_o-12" value="ProducerBatch" style="rounded=0;whiteSpace=wrap;html=1;" vertex="1" parent="1">
          <mxGeometry x="160" y="300" width="100" height="40" as="geometry"/>
        </mxCell>
        <mxCell id="_hkE4ayy22RxHB7I-x_o-13" value="检查是否是重复BathMeta，并检查seq连续性" style="rounded=0;whiteSpace=wrap;html=1;" vertex="1" parent="1">
          <mxGeometry x="540" y="143" width="300" height="230" as="geometry"/>
        </mxCell>
        <mxCell id="_hkE4ayy22RxHB7I-x_o-14" value="BatchMeta" style="rounded=0;whiteSpace=wrap;html=1;" vertex="1" parent="1">
          <mxGeometry x="590" y="310" width="100" height="40" as="geometry"/>
        </mxCell>
        <mxCell id="_hkE4ayy22RxHB7I-x_o-15" value="BatchMeta" style="rounded=0;whiteSpace=wrap;html=1;" vertex="1" parent="1">
          <mxGeometry x="690" y="310" width="100" height="40" as="geometry"/>
        </mxCell>
        <mxCell id="_hkE4ayy22RxHB7I-x_o-17" style="edgeStyle=orthogonalEdgeStyle;rounded=0;orthogonalLoop=1;jettySize=auto;html=1;exitX=0.5;exitY=0;exitDx=0;exitDy=0;entryX=1;entryY=0.5;entryDx=0;entryDy=0;" edge="1" parent="1" source="_hkE4ayy22RxHB7I-x_o-16" target="_hkE4ayy22RxHB7I-x_o-15">
          <mxGeometry relative="1" as="geometry"/>
        </mxCell>
        <mxCell id="_hkE4ayy22RxHB7I-x_o-16" value="BatchMeta" style="rounded=0;whiteSpace=wrap;html=1;" vertex="1" parent="1">
          <mxGeometry x="780" y="400" width="100" height="40" as="geometry"/>
        </mxCell>
        <mxCell id="_hkE4ayy22RxHB7I-x_o-18" value="满足seq连续" style="text;html=1;resizable=0;points=[];autosize=1;align=left;verticalAlign=top;spacingTop=-4;" vertex="1" parent="1">
          <mxGeometry x="830" y="371.5" width="80" height="20" as="geometry"/>
        </mxCell>
      </root>
    </mxGraphModel>
  </diagram>
</mxfile>
